<?xml version="1.0" encoding="utf-8"?>
<!-- Generator: Adobe Illustrator 23.0.3, SVG Export Plug-In . SVG Version: 6.00 Build 0)  -->
<svg version="1.1" xmlns="http://www.w3.org/2000/svg" xmlns:xlink="http://www.w3.org/1999/xlink" x="0px" y="0px"
	 viewBox="0 0 238.96 237.91" style="enable-background:new 0 0 238.96 237.91;" xml:space="preserve">
<style type="text/css">
	.st0{stroke:#000000;stroke-miterlimit:10;}
	.st1{fill:#FFFFFF;}
</style>
<g id="Calque_3">
	<circle class="st0" cx="119.06" cy="119.11" r="115.33"/>
</g>
<g id="Calque_2">
	<path class="st1" d="M99.71,78.78v94.74H68.79c0-31.58,0-63.16,0-94.74c0,0,3.88-32.61,15.46-32.61
		C95.83,46.17,99.71,78.78,99.71,78.78z"/>
	<rect x="68.79" y="178.7" class="st1" width="30.92" height="12.78"/>
	<path class="st1" d="M135.36,79.04v94.74h-30.92c0-31.58,0-63.16,0-94.74c0,0,3.88-32.61,15.46-32.61
		C131.48,46.43,135.36,79.04,135.36,79.04z"/>
	<rect x="104.44" y="178.96" class="st1" width="30.92" height="12.78"/>
	<path class="st1" d="M170.75,79.04v94.74h-30.92c0-31.58,0-63.16,0-94.74c0,0,3.88-32.61,15.46-32.61
		C166.87,46.43,170.75,79.04,170.75,79.04z"/>
	<rect x="139.83" y="178.96" class="st1" width="30.92" height="12.78"/>
	<g>
	</g>
	<g>
	</g>
	<g>
	</g>
	<g>
	</g>
	<g>
	</g>
</g>
</svg>
