<?xml version="1.0" encoding="utf-8"?>
<!-- Generator: Adobe Illustrator 23.0.3, SVG Export Plug-In . SVG Version: 6.00 Build 0)  -->
<svg version="1.1" xmlns="http://www.w3.org/2000/svg" xmlns:xlink="http://www.w3.org/1999/xlink" x="0px" y="0px"
	 viewBox="0 0 238.96 237.91" style="enable-background:new 0 0 238.96 237.91;" xml:space="preserve">
<style type="text/css">
	.st0{fill:#FFFFFF;}
	.st1{stroke:#000000;stroke-miterlimit:10;}
	.st2{display:none;}
	.st3{display:inline;fill:#FFFFFF;}
</style>
<g id="Calque_4">
	<circle class="st0" cx="119.48" cy="118.96" r="117.34"/>
</g>
<g id="Calque_3">
	<circle class="st1" cx="119.06" cy="119.11" r="107.37"/>
</g>
<g id="Damage">
	<path class="st0" d="M100.68,80.94v90H71.3c0-30,0-60,0-90c0,0,3.69-30.98,14.69-30.98C96.99,49.96,100.68,80.94,100.68,80.94z"/>
	<rect x="71.3" y="175.86" class="st0" width="29.37" height="12.14"/>
	<path class="st0" d="M134.55,81.19v90h-29.37c0-30,0-60,0-90c0,0,3.69-30.98,14.69-30.98C130.86,50.21,134.55,81.19,134.55,81.19z"
		/>
	<rect x="105.17" y="176.11" class="st0" width="29.37" height="12.14"/>
	<path class="st0" d="M168.17,81.19v90h-29.38c0-30,0-60,0-90c0,0,3.69-30.98,14.69-30.98C164.48,50.21,168.17,81.19,168.17,81.19z"
		/>
	<rect x="138.79" y="176.11" class="st0" width="29.37" height="12.14"/>
</g>
<g id="Shield" class="st2">
	<path class="st3" d="M119.91,194.75c35.96-17.29,56.05-58.18,56.05-58.18V67.25c0,0-11.11-10.1-46.67-10.1h-9.83h-9.83
		c-35.56,0-46.67,10.1-46.67,10.1v69.33c0,0,20.09,40.89,56.05,58.18"/>
</g>
<g id="Support" class="st2">
	<path class="st3" d="M189.19,119.29v-0.08l-0.03,4.34c0,10.06-7.1,19.95-18.26,19.95h-27.59v27.59c0,11.15-9.89,18.26-19.95,18.26
		l-4.34,0.03h0.08h-0.08h0.08l-4.34-0.03c-10.06,0-19.95-7.1-19.95-18.26v-27.59H67.23c-11.15,0-18.26-9.89-18.26-19.95l-0.03-4.34
		v0.08v-0.06v0.08l0.03-4.34c0-10.06,7.1-19.95,18.26-19.95h27.59V67.43c0-11.15,9.89-18.26,19.95-18.26l4.34-0.03h-0.08h0.08h-0.08
		l4.34,0.03c10.06,0,19.95,7.1,19.95,18.26v27.59h27.59c11.15,0,18.26,9.89,18.26,19.95l0.03,4.34v-0.08"/>
</g>
</svg>
