<?xml version="1.0" encoding="utf-8"?>
<!-- Generator: Adobe Illustrator 23.0.3, SVG Export Plug-In . SVG Version: 6.00 Build 0)  -->
<svg version="1.1" xmlns="http://www.w3.org/2000/svg" xmlns:xlink="http://www.w3.org/1999/xlink" x="0px" y="0px"
	 viewBox="0 0 238.96 237.91" style="enable-background:new 0 0 238.96 237.91;" xml:space="preserve">
<style type="text/css">
	.st0{stroke:#000000;stroke-miterlimit:10;}
	.st1{fill:#FFFFFF;}
</style>
<g id="Calque_3">
	<circle class="st0" cx="119.06" cy="119.11" r="115.33"/>
</g>
<g id="Calque_6">
	<path class="st1" d="M193.34,119.2v-0.09l-0.03,4.57c0,10.59-7.48,21-19.22,21h-29.04v29.04c0,11.74-10.41,19.22-21,19.22
		l-4.57,0.03h0.09h-0.09h0.09l-4.57-0.03c-10.59,0-21-7.48-21-19.22v-29.04H64.96c-11.74,0-19.22-10.41-19.22-21l-0.03-4.57v0.09
		v-0.07v0.09l0.03-4.57c0-10.59,7.48-21,19.22-21H94V64.61c0-11.74,10.41-19.22,21-19.22l4.57-0.03h-0.09h0.09h-0.09l4.57,0.03
		c10.59,0,21,7.48,21,19.22v29.04h29.04c11.74,0,19.22,10.41,19.22,21l0.03,4.57v-0.09"/>
	<g>
	</g>
	<g>
	</g>
	<g>
	</g>
	<g>
	</g>
	<g>
	</g>
</g>
</svg>
